# xmcd
#
# Track frame offsets: 
#        150
#        18542
#        49146
#        60908
#        74263
#        88742
#        105015
#        127610
#        145601
#        159815
#        176233
#        199490
#        214058
#        232711
#        255760
#
# Disc length: 3607 seconds
#
# Revision: 0
# Processed by: cddbd v1.5.2PL0 Copyright (c) Steve Scherf et al.
# Submitted via: ExactAudioCopy v0.99pb5
#
DISCID=b50e150f
DTITLE=Various Artist - Pocket Full Of Soul - Operation Creation Vol. 1
DYEAR=1900
DGENRE=Blues
TTITLE0=Peter Madcat Ruth
TTITLE1=Jimi Lee
TTITLE2=Vinnie And Janice Zummo And Rob Paparozzi
TTITLE3=Jeff Blackwell And Harry Forhand
TTITLE4=Doke Ford And Ethan Ford
TTITLE5=Frank Bergheimer
TTITLE6=Jimmy Gordon
TTITLE7=Dino Gambino
TTITLE8=Ian Robinson
TTITLE9=Todd Vogtman And Will Vogtman
TTITLE10=Dave Nevling And The Blues Kats
TTITLE11=Jack Eoery And Paul Orta
TTITLE12=Rusty Winz And Josal
TTITLE13=Brandon Glenn
TTITLE14=Vinnie Zummo Featuring Rob Paparozzi
EXTD=
EXTT0=
EXTT1=
EXTT2=
EXTT3=
EXTT4=
EXTT5=
EXTT6=
EXTT7=
EXTT8=
EXTT9=
EXTT10=
EXTT11=
EXTT12=
EXTT13=
EXTT14=
PLAYORDER=
